<svg width="7" height="7" viewBox="0 0 7 7" fill="none" xmlns="http://www.w3.org/2000/svg">
<path d="M3.97503 6.9643C3.94825 6.9643 3.92013 6.96029 3.89469 6.95091C0.682093 5.83675 1.00349 1.76175 1.00616 1.72024C1.01822 1.589 1.12535 1.49125 1.2606 1.49526C2.82471 1.54749 3.79157 0.616788 3.80095 0.607414C3.89736 0.513674 4.05137 0.513674 4.14644 0.607414C4.16251 0.623484 5.13607 1.54749 6.68679 1.49526C6.68947 1.49526 6.69215 1.49526 6.69483 1.49526C6.82204 1.49526 6.92917 1.59302 6.94123 1.72024C6.94524 1.76175 7.26664 5.83541 4.05404 6.95091C4.02994 6.96029 4.00182 6.9643 3.97503 6.9643ZM1.48959 1.99074C1.47888 2.80494 1.61949 5.57562 3.97503 6.45409C6.33058 5.57562 6.47119 2.80494 6.46048 1.99074C5.20436 1.96262 4.32857 1.38813 3.97503 1.10959C3.6215 1.38813 2.74571 1.96262 1.48959 1.99074Z" fill="#21A300"/>
</svg>
