<svg width="8" height="6" viewBox="0 0 8 6" fill="none" xmlns="http://www.w3.org/2000/svg">
<path d="M6.91556 0.414444C6.8774 0.414444 6.84023 0.429509 6.81312 0.456627C6.78499 0.483744 6.74582 0.499814 6.70364 0.499814C6.66146 0.499814 6.62229 0.483744 6.59417 0.456627C6.51382 0.376278 6.39932 0.330078 6.2798 0.330078C6.16029 0.330078 6.04579 0.376278 5.96544 0.456627L5.60387 0.818194L5.32065 0.534966C5.27846 0.493788 5.21318 0.493788 5.172 0.534966L4.79637 0.90959C4.41773 0.693654 3.98787 0.578154 3.53993 0.578154C2.85897 0.578154 2.22021 0.842299 1.73912 1.32439C0.745814 2.31769 0.745814 3.9327 1.73912 4.926C2.2192 5.40709 2.85897 5.67224 3.53993 5.67224C4.21987 5.67224 4.85864 5.40709 5.34073 4.926C5.82081 4.44492 6.08697 3.80514 6.08697 3.1252C6.08697 2.67725 5.97247 2.24639 5.75453 1.86774L6.13016 1.49312C6.17133 1.45194 6.17133 1.38565 6.13016 1.34448L5.80876 1.02308L6.17033 0.661515C6.19745 0.634397 6.23762 0.618328 6.2798 0.618328C6.32199 0.618328 6.36116 0.634397 6.38928 0.661515C6.46963 0.741863 6.58412 0.788064 6.70364 0.788064C6.82316 0.788064 6.93766 0.741863 7.018 0.661515C7.04512 0.634397 7.06019 0.598241 7.06019 0.559071C7.06019 0.519901 7.04512 0.483744 7.018 0.456627C6.99089 0.429509 6.95373 0.414444 6.91556 0.414444Z" fill="#3D4858"/>
</svg>
