<svg width="33" height="33" viewBox="0 0 33 33" fill="none" xmlns="http://www.w3.org/2000/svg">
<path d="M16.5 33C25.6127 33 33 25.6127 33 16.5C33 7.3873 25.6127 0 16.5 0C7.3873 0 0 7.3873 0 16.5C0 25.6127 7.3873 33 16.5 33Z" fill="#22BEA1"/>
<path d="M22.2208 18.8837C22.1109 18.5242 21.9776 18.2112 21.8211 17.9456C21.6645 17.6796 21.4404 17.4201 21.1483 17.1664C20.8564 16.9127 20.5939 16.7085 20.3611 16.5532C20.1285 16.3977 19.8089 16.224 19.4026 16.0316C18.9967 15.8394 18.675 15.6963 18.4382 15.6021C18.2011 15.5082 17.8582 15.3794 17.4096 15.2158C17.0117 15.0686 16.7156 14.9562 16.5209 14.8785C16.3262 14.8008 16.0702 14.6905 15.7529 14.5472C15.4356 14.4042 15.1987 14.2774 15.042 14.1671C14.8854 14.0567 14.7184 13.9218 14.5406 13.7624C14.3627 13.6029 14.238 13.4331 14.166 13.2533C14.0942 13.0733 14.0581 12.877 14.0581 12.6643C14.0581 12.1083 14.3121 11.6542 14.8198 11.3027C15.3276 10.9511 15.9836 10.7752 16.7877 10.7752C17.1429 10.7752 17.5052 10.8222 17.873 10.9164C18.241 11.0105 18.5562 11.1165 18.8187 11.2352C19.0813 11.3539 19.3287 11.4847 19.5615 11.6278C19.7944 11.771 19.9593 11.8793 20.0567 11.9529C20.1541 12.0265 20.2157 12.0755 20.2409 12.1001C20.3511 12.1819 20.465 12.2105 20.5834 12.186C20.7104 12.1778 20.8078 12.1124 20.8757 11.9898L21.9042 10.1987C22.0056 10.0352 21.9846 9.87974 21.8406 9.73243C21.7788 9.67331 21.7152 9.61606 21.6499 9.56074C21.574 9.4952 21.4088 9.37668 21.1547 9.20489C20.898 9.03155 20.6286 8.87776 20.3489 8.74482C20.0651 8.61007 19.6969 8.47293 19.2441 8.33397C18.7869 8.19392 18.317 8.09941 17.8412 8.05182V5.89261C17.8412 5.77812 17.8033 5.68407 17.7273 5.61037C17.6512 5.53694 17.5538 5.5 17.4351 5.5H15.7212C15.6112 5.5 15.5159 5.53877 15.4355 5.61651C15.3551 5.69424 15.315 5.78618 15.315 5.89252V8.10077C13.9862 8.34607 12.9071 8.89405 12.0777 9.74463C11.2484 10.5952 10.8336 11.5846 10.8336 12.7133C10.8336 13.0487 10.8697 13.3677 10.9416 13.6701C11.0134 13.9727 11.1023 14.2448 11.2082 14.4859C11.3139 14.7274 11.4642 14.9644 11.6589 15.1976C11.8535 15.4307 12.0376 15.6311 12.2111 15.7987C12.3847 15.9662 12.6111 16.14 12.8903 16.3199C13.1696 16.5 13.4087 16.6453 13.6077 16.7556C13.8066 16.8656 14.0711 16.9928 14.4011 17.1355C14.7311 17.2788 14.9914 17.387 15.1819 17.4608C15.3724 17.5343 15.6325 17.6367 15.9628 17.7672C16.4197 17.939 16.7583 18.0719 16.9784 18.1659C17.1985 18.2601 17.4777 18.391 17.8165 18.5587C18.1549 18.7261 18.4023 18.8795 18.559 19.0186C18.7155 19.1577 18.8573 19.3294 18.9843 19.5338C19.1114 19.7382 19.175 19.955 19.175 20.1841C19.175 20.8302 18.9147 21.329 18.3941 21.6804C17.8737 22.0322 17.2705 22.208 16.585 22.208C16.2694 22.2078 15.9546 22.175 15.6457 22.1101C14.5455 21.8972 13.5172 21.386 12.5609 20.5764L12.5355 20.5519C12.4593 20.4621 12.3576 20.4254 12.2309 20.4418C12.0955 20.4581 11.998 20.5072 11.9389 20.5892L10.6313 22.2451C10.5042 22.4087 10.5128 22.5763 10.6567 22.748C10.699 22.7971 10.7731 22.8709 10.8789 22.9689C10.9848 23.0673 11.1816 23.2204 11.4692 23.4294C11.7569 23.638 12.0701 23.834 12.4087 24.0182C12.7472 24.2022 13.1767 24.3841 13.6972 24.5641C14.2226 24.745 14.7649 24.8723 15.3159 24.9441V27.0909C15.3159 27.1974 15.3562 27.2893 15.4365 27.3671C15.5169 27.4449 15.6121 27.4835 15.7221 27.4835H17.4361C17.5548 27.4835 17.6521 27.4468 17.7282 27.3733C17.8043 27.2998 17.8421 27.2057 17.8421 27.091V24.9442C19.1881 24.7315 20.2819 24.1732 21.124 23.2695C21.966 22.3657 22.3872 21.2882 22.3872 20.0371C22.3868 19.6282 22.3319 19.2438 22.2208 18.8837Z" fill="white"/>
</svg>
